<svg width="111" height="50" viewBox="0 0 111 50" fill="none" xmlns="http://www.w3.org/2000/svg">
<g clip-path="url(#clip0_2195_1312)">
<path d="M40.6089 29.9796V17.1923H41.9552V28.7866H47.9671V29.9796H40.6089Z" fill="#0F1828"/>
<path d="M50.4787 19.365C49.8861 19.365 49.4731 18.9734 49.4731 18.4218C49.4731 17.8702 49.8861 17.4955 50.4787 17.4955C51.0712 17.4955 51.5011 17.8871 51.5011 18.4218C51.5011 18.9565 51.0882 19.365 50.4787 19.365ZM49.8691 29.9797V20.5944H51.125V29.9797H49.8691Z" fill="#0F1828"/>
<path d="M57.4949 29.9796H56.1853L52.5776 20.5944H53.924L56.8854 28.52L59.8467 20.5944H61.1393L57.4963 29.9796H57.4949Z" fill="#0F1828"/>
<path d="M61.6045 25.2077C61.6045 22.4652 63.4345 20.4175 65.9476 20.4175C68.6388 20.4175 70.3981 22.5719 70.1832 25.5824H62.8617C62.9692 27.8084 64.1543 29.1796 66.0027 29.1796C67.5824 29.1796 68.677 28.3066 68.9811 26.8105H70.2199C69.7886 28.8947 68.1919 30.1592 66.0211 30.1592C63.3652 30.1592 61.6059 28.1817 61.6059 25.2077H61.6045ZM62.8603 24.7262H68.8722C68.7647 22.6252 67.6701 21.3775 65.9292 21.3775C64.1883 21.3775 63.0215 22.6771 62.8603 24.7262Z" fill="#0F1828"/>
<path d="M73.5205 29.9797H72.2646V20.5944H73.4314V22.7319C74.0777 21.3425 75.4778 20.4526 77.0391 20.4526V21.7523C75.0464 21.6807 73.5219 22.9102 73.5219 24.9579V29.9797H73.5205Z" fill="#0F1828"/>
<path d="M84.0001 29.8912C83.5151 30.0876 83.1035 30.1578 82.6368 30.1578C81.0755 30.1578 79.8734 29.3564 79.8734 27.3255V21.6441H77.6475V20.5929H79.8734V17.814H81.1293V20.5929H84.0907V21.6441H81.1293V27.0589C81.1293 28.5199 81.8477 29.0182 82.8886 29.0182C83.2831 29.0182 83.607 28.9466 84.0016 28.7866V29.8912H84.0001Z" fill="#0F1828"/>
<path d="M88.4325 33.4182H87.0861L88.4678 29.8561L84.7173 20.5944H86.0636L89.1141 28.36L92.0034 20.5944H93.2776L88.4325 33.4182Z" fill="#0F1828"/>
<path d="M40.7402 45.8757V33.0884H42.0866V38.6982H49.408V33.0884H50.7543V45.8757H49.408V39.8561H42.0866V45.8757H40.7402Z" fill="#0F1828"/>
<path d="M52.8716 41.174C52.8716 38.36 54.7553 36.3291 57.3575 36.3291C59.9597 36.3291 61.8618 38.36 61.8618 41.174C61.8618 43.988 59.9781 46.054 57.3575 46.054C54.7369 46.054 52.8716 44.0063 52.8716 41.174ZM60.5876 41.174C60.5876 38.8765 59.2059 37.4154 57.3575 37.4154C55.5091 37.4154 54.1458 38.8765 54.1458 41.174C54.1458 43.4716 55.5275 44.9677 57.3575 44.9677C59.1875 44.9677 60.5876 43.5066 60.5876 41.174Z" fill="#0F1828"/>
<path d="M69.937 36.4905H71.1759V45.8758H70.0092V44.1832C69.5241 45.2695 68.3757 46.0526 66.994 46.0526C65.0735 46.0526 63.7993 44.9663 63.7993 42.5972V36.4891H65.0551V42.3305C65.0551 44.2365 66.0069 44.9663 67.3349 44.9663C68.8424 44.9663 69.937 43.7551 69.937 42.0807V36.4891V36.4905Z" fill="#0F1828"/>
<path d="M77.2399 46.0541C74.8895 46.0541 73.454 44.8779 73.2744 42.9369H74.4765C74.5656 44.273 75.6248 45.1095 77.2399 45.1095C78.8549 45.1095 79.7162 44.5214 79.7162 43.4534C79.7162 42.5271 79.1774 42.1004 77.7419 41.8155L76.3786 41.5488C74.584 41.2106 73.6322 40.3376 73.6322 38.9846C73.6322 37.4169 75.0323 36.3137 77.0956 36.3137C79.2665 36.3137 80.7033 37.4716 80.8462 39.3411H79.661C79.5352 38.0414 78.5848 37.2751 77.0942 37.2751C75.7663 37.2751 74.8513 37.8983 74.8513 38.8779C74.8513 39.8043 75.4254 40.2492 76.8255 40.5158L78.2426 40.7825C80.1263 41.139 80.9706 41.9221 80.9706 43.2583C80.9706 44.986 79.5705 46.0541 77.2385 46.0541H77.2399Z" fill="#0F1828"/>
<path d="M83.7726 35.261C83.18 35.261 82.7671 34.8694 82.7671 34.3165C82.7671 33.7635 83.18 33.3901 83.7726 33.3901C84.3652 33.3901 84.7951 33.7817 84.7951 34.3165C84.7951 34.8512 84.3821 35.261 83.7726 35.261ZM83.1631 45.8758V36.4905H84.4189V45.8758H83.1631Z" fill="#0F1828"/>
<path d="M88.4013 45.8758H87.1455V36.4905H88.3122V38.2533C88.9218 37.0954 90.0715 36.3123 91.4348 36.3123C93.4091 36.3123 94.6833 37.5586 94.6833 39.7845V45.8758H93.4275V40.2126C93.4275 38.4133 92.6016 37.3986 91.0587 37.3986C89.5158 37.3986 88.4028 38.6631 88.4028 40.4077V45.8758H88.4013Z" fill="#0F1828"/>
<path d="M96.8709 46.1607H98.073C98.1805 47.6919 99.186 48.5116 100.873 48.5116C102.74 48.5116 103.727 47.5319 103.727 45.6793V43.72C103.153 45.0379 102.005 45.8042 100.604 45.8042C98.2173 45.8042 96.6206 43.8982 96.6206 41.0491C96.6206 38.2 98.2003 36.3123 100.586 36.3123C102.003 36.3123 103.188 37.1137 103.798 38.4849V36.4905H104.965V45.6624C104.965 48.0849 103.475 49.5094 100.89 49.5094C98.486 49.5094 96.9784 48.2631 96.8709 46.1607ZM100.783 44.7361C102.559 44.7361 103.744 43.3116 103.744 41.1389C103.744 38.8414 102.577 37.3817 100.783 37.3817C98.988 37.3817 97.875 38.7712 97.875 41.0505C97.875 43.3298 98.9696 44.7375 100.783 44.7375V44.7361Z" fill="#0F1828"/>
<path d="M15.1063 16.3488H0.518555V30.8259H15.1063V16.3488Z" fill="#00B6B8"/>
<path d="M31.1238 16.3488H16.5361V30.8259H31.1238V16.3488Z" fill="#F8B99B"/>
<path d="M31.1069 14.9284H16.5361V0.468018C20.3545 0.640649 23.9198 2.19995 26.6422 4.9003C29.3631 7.60065 30.9329 11.1389 31.1083 14.9298L31.1069 14.9284Z" fill="#FFDCCF"/>
<path d="M4.54779 5.36913C7.27724 2.41896 11.0928 0.656149 15.1064 0.469482V14.9298H0.535645C0.701109 11.3747 2.11109 8.00352 4.54779 5.37053V5.36913Z" fill="#008586"/>
<path d="M15.1063 32.2449H0.518555V46.7221H15.1063V32.2449Z" fill="#72DFE1"/>
<path d="M31.1238 32.2449H16.5361V46.7221H31.1238V32.2449Z" fill="#F16F2D"/>
<path d="M106.424 38.2842C106.424 37.1417 107.33 36.2252 108.535 36.2252C109.74 36.2252 110.652 37.1431 110.652 38.2842C110.652 39.4252 109.746 40.3375 108.535 40.3375C107.325 40.3375 106.424 39.4196 106.424 38.2842ZM110.163 38.2842C110.163 37.3733 109.501 36.6561 108.535 36.6561C107.569 36.6561 106.913 37.3719 106.913 38.2842C106.913 39.1964 107.581 39.9122 108.535 39.9122C109.49 39.9122 110.163 39.1908 110.163 38.2842ZM108.452 38.6154H108.22V39.3256H107.725V37.2428H108.565C109.108 37.2428 109.43 37.4856 109.43 37.9291C109.43 38.2252 109.24 38.4386 108.971 38.5326L109.508 39.3256H108.9L108.453 38.6154H108.452ZM108.22 37.6512V38.2014H108.542C108.811 38.2014 108.937 38.1003 108.937 37.9291C108.937 37.7578 108.811 37.6512 108.542 37.6512H108.22Z" fill="#0F1828"/>
</g>
<defs>
<clipPath id="clip0_2195_1312">
<rect width="110.309" height="49.2632" fill="white" transform="translate(0.394043 0.368408)"/>
</clipPath>
</defs>
</svg>
