<svg width="20" height="17" viewBox="0 0 20 17" fill="none" xmlns="http://www.w3.org/2000/svg">
<path fill-rule="evenodd" clip-rule="evenodd" d="M3.175 16.017C2.39924 16.017 1.65526 15.7088 1.10671 15.1603C0.558169 14.6117 0.25 13.8678 0.25 13.092V3.34199C0.25 2.56623 0.558169 1.82225 1.10671 1.2737C1.65526 0.725161 2.39924 0.416992 3.175 0.416992H16.825C17.6008 0.416992 18.3447 0.725161 18.8933 1.2737C19.4418 1.82225 19.75 2.56623 19.75 3.34199V13.092C19.75 13.8678 19.4418 14.6117 18.8933 15.1603C18.3447 15.7088 17.6008 16.017 16.825 16.017H3.175ZM5.73438 4.53149C5.63506 4.44668 5.51971 4.38269 5.39519 4.34332C5.27066 4.30395 5.1395 4.28999 5.00947 4.30228C4.87945 4.31458 4.75322 4.35287 4.63829 4.41488C4.52335 4.47689 4.42204 4.56136 4.34037 4.66328C4.25871 4.7652 4.19835 4.88249 4.16288 5.00818C4.12742 5.13388 4.11756 5.26541 4.13391 5.39499C4.15026 5.52456 4.19247 5.64953 4.25804 5.76248C4.32361 5.87543 4.41121 5.97405 4.51562 6.05249L8.17188 8.97847C8.69066 9.39383 9.33542 9.62014 10 9.62014C10.6646 9.62014 11.3093 9.39383 11.8281 8.97847L15.4844 6.05347C15.5844 5.97344 15.6676 5.87451 15.7294 5.76231C15.7912 5.65011 15.8302 5.52684 15.8443 5.39954C15.8585 5.27225 15.8474 5.14342 15.8117 5.02041C15.776 4.8974 15.7165 4.78262 15.6365 4.68262C15.5565 4.58262 15.4575 4.49936 15.3453 4.4376C15.2331 4.37584 15.1098 4.33678 14.9826 4.32265C14.8553 4.30853 14.7264 4.31962 14.6034 4.35528C14.4804 4.39095 14.3656 4.45049 14.2656 4.53052L10.6094 7.45552C10.4364 7.59397 10.2215 7.66941 10 7.66941C9.77847 7.66941 9.56355 7.59397 9.39062 7.45552L5.73438 4.53052V4.53149Z" fill="#00243E"/>
</svg>
