<svg width="18" height="19" viewBox="0 0 18 19" fill="none" xmlns="http://www.w3.org/2000/svg">
<path fill-rule="evenodd" clip-rule="evenodd" d="M6.6861 7.08362H10.0287V8.74862C10.5102 7.79102 11.745 6.93062 13.5999 6.93062C17.1558 6.93062 18 8.83682 18 12.3342V18.8115H14.4V13.1307C14.4 11.139 13.9185 10.0158 12.6927 10.0158C10.9926 10.0158 10.2861 11.2263 10.2861 13.1298V18.8115H6.6861V7.08362ZM0.513 18.6585H4.113V6.93062H0.513V18.6585ZM4.6287 3.10652C4.62883 3.40827 4.56899 3.70704 4.45265 3.98545C4.33631 4.26387 4.16579 4.51639 3.951 4.72832C3.51576 5.16089 2.92663 5.40301 2.313 5.40152C1.70045 5.40111 1.11268 5.1596 0.6768 4.72922C0.46279 4.51656 0.292847 4.26377 0.176709 3.98531C0.0605713 3.70686 0.000521219 3.40823 0 3.10652C0 2.49722 0.243 1.91402 0.6777 1.48382C1.1132 1.05287 1.70122 0.811254 2.3139 0.811524C2.9277 0.811524 3.5163 1.05362 3.951 1.48382C4.3848 1.91402 4.6287 2.49722 4.6287 3.10652Z" fill="#00243E"/>
</svg>
